<svg width="1028" height="245" viewBox="0 0 1028 245" fill="none" xmlns="http://www.w3.org/2000/svg">
<path d="M0.000118256 198.912V177.92H38.1441V33.024H0.000118256V12.032H99.8401V33.024H61.6961V177.92H99.8401V198.912H0.000118256ZM150.172 198.912V58.112H173.212V84.992H178.076L173.212 90.368C173.212 79.2746 176.54 70.7413 183.196 64.768C189.852 58.624 199.068 55.552 210.844 55.552C225.009 55.552 236.273 59.904 244.636 68.608C252.999 77.312 257.18 89.1733 257.18 104.192V198.912H234.14V106.752C234.14 96.6826 231.409 89.0026 225.948 83.712C220.657 78.2506 213.404 75.52 204.188 75.52C194.631 75.52 187.036 78.4213 181.404 84.224C175.943 90.0266 173.212 98.3893 173.212 109.312V198.912H150.172ZM352.568 200.96C343.011 200.96 334.648 199.509 327.48 196.608C320.483 193.536 314.851 189.269 310.584 183.808C306.488 178.347 304.013 171.861 303.16 164.352H326.2C327.224 169.301 329.955 173.227 334.392 176.128C339 179.029 345.059 180.48 352.568 180.48H363.32C372.365 180.48 379.107 178.688 383.544 175.104C387.981 171.349 390.2 166.4 390.2 160.256C390.2 154.283 388.152 149.589 384.056 146.176C380.131 142.592 374.243 140.203 366.392 139.008L347.448 135.936C333.624 133.547 323.299 129.28 316.472 123.136C309.816 116.821 306.488 107.691 306.488 95.744C306.488 83.1146 310.499 73.3866 318.52 66.56C326.541 59.5626 338.573 56.064 354.616 56.064H364.344C377.827 56.064 388.664 59.2213 396.856 65.536C405.048 71.8506 409.997 80.384 411.704 91.136H388.664C387.64 86.6986 385.08 83.2 380.984 80.64C376.888 77.9093 371.341 76.544 364.344 76.544H354.616C345.912 76.544 339.512 78.1653 335.416 81.408C331.491 84.6506 329.528 89.5146 329.528 96C329.528 101.803 331.235 106.069 334.648 108.8C338.061 111.531 343.437 113.493 350.776 114.688L369.72 117.76C384.909 120.149 395.917 124.587 402.744 131.072C409.741 137.557 413.24 146.944 413.24 159.232C413.24 172.203 409.059 182.443 400.696 189.952C392.504 197.291 380.045 200.96 363.32 200.96H352.568ZM455.38 198.912V177.92H505.3V79.104H461.78V58.112H528.34V177.92H575.7V198.912H455.38ZM514.26 32.768C508.628 32.768 504.191 31.3173 500.948 28.416C497.705 25.5146 496.084 21.5893 496.084 16.64C496.084 11.52 497.705 7.50931 500.948 4.60797C504.191 1.53598 508.628 -1.52588e-05 514.26 -1.52588e-05C519.892 -1.52588e-05 524.329 1.53598 527.572 4.60797C530.815 7.50931 532.436 11.52 532.436 16.64C532.436 21.5893 530.815 25.5146 527.572 28.416C524.329 31.3173 519.892 32.768 514.26 32.768ZM628.336 244.992V224H673.136C680.304 224 685.509 222.379 688.752 219.136C692.165 215.893 693.872 210.859 693.872 204.032V186.112L694.384 160.512H689.776L694.128 156.672C694.128 166.912 690.715 175.019 683.888 180.992C677.061 186.965 667.931 189.952 656.496 189.952C641.989 189.952 630.555 185.259 622.192 175.872C613.829 166.315 609.648 153.515 609.648 137.472V107.776C609.648 91.7333 613.829 79.0187 622.192 69.632C630.555 60.2453 641.989 55.552 656.496 55.552C667.931 55.552 677.061 58.5387 683.888 64.512C690.715 70.4853 694.128 78.592 694.128 88.832L689.776 84.992H694.128V58.112H716.912V204.032C716.912 216.661 712.987 226.645 705.136 233.984C697.456 241.323 686.704 244.992 672.88 244.992H628.336ZM663.408 169.984C672.965 169.984 680.475 166.997 685.936 161.024C691.397 155.051 694.128 146.773 694.128 136.192V109.312C694.128 98.7306 691.397 90.4533 685.936 84.48C680.475 78.5066 672.965 75.52 663.408 75.52C653.68 75.52 646.085 78.4213 640.624 84.224C635.333 90.0266 632.688 98.3893 632.688 109.312V136.192C632.688 147.115 635.333 155.477 640.624 161.28C646.085 167.083 653.68 169.984 663.408 169.984ZM764.172 198.912V12.032H787.212V58.112V84.992H792.076L787.212 90.368C787.212 79.2746 790.54 70.7413 797.196 64.768C803.852 58.624 813.068 55.552 824.844 55.552C839.009 55.552 850.273 59.904 858.636 68.608C866.999 77.312 871.18 89.1733 871.18 104.192V198.912H848.14V106.752C848.14 96.6826 845.409 88.9173 839.948 83.456C834.657 77.824 827.404 75.008 818.188 75.008C808.631 75.008 801.036 77.9946 795.404 83.968C789.943 89.9413 787.212 98.3893 787.212 109.312V198.912H764.172ZM986.28 198.912C974.163 198.912 964.691 195.669 957.864 189.184C951.208 182.699 947.88 173.568 947.88 161.792V79.104H908.2V58.112H947.88V18.432H970.92V58.112H1027.24V79.104H970.92V161.792C970.92 172.544 976.04 177.92 986.28 177.92H1024.68V198.912H986.28Z" fill="white"/>
</svg>
